<?xml version="1.0" ?><!DOCTYPE svg  PUBLIC '-//W3C//DTD SVG 1.1//EN'  'http://www.w3.org/Graphics/SVG/1.1/DTD/svg11.dtd'><svg enable-background="new 0 0 512 512" height="512px" id="Layer_1" version="1.1" viewBox="0 0 512 512" width="512px" xml:space="preserve" xmlns="http://www.w3.org/2000/svg" xmlns:xlink="http://www.w3.org/1999/xlink"><g><path d="M67.5,318.81c-4.971,0-9,4.029-9,9s4.029,9,9,9h107.69V444.5c0,4.971,4.029,9,9,9s9-4.029,9-9V336.81H318.81V444.5   c0,4.971,4.029,9,9,9s9-4.029,9-9V336.81H444.5c4.971,0,9-4.029,9-9s-4.029-9-9-9H336.81V193.19H444.5c4.971,0,9-4.029,9-9   s-4.029-9-9-9H336.81V67.5c0-4.971-4.029-9-9-9s-9,4.029-9,9v107.69H193.19V67.5c0-4.971-4.029-9-9-9s-9,4.029-9,9v107.69H67.5   c-4.971,0-9,4.029-9,9s4.029,9,9,9h107.69V318.81H67.5z M193.19,193.19H318.81V318.81H193.19V193.19z"/><path d="M293.582,74.799c-3.516-3.514-9.213-3.514-12.729,0L256,99.652l-24.854-24.854c-3.516-3.514-9.213-3.514-12.729,0   c-3.515,3.515-3.515,9.214,0,12.729l24.854,24.854l-24.854,24.854c-3.515,3.515-3.515,9.214,0,12.729   c1.758,1.757,4.061,2.636,6.364,2.636s4.606-0.879,6.364-2.636L256,125.109l24.854,24.854c1.758,1.757,4.061,2.636,6.364,2.636   s4.606-0.879,6.364-2.636c3.515-3.515,3.515-9.214,0-12.729l-24.854-24.854l24.854-24.854   C297.097,84.013,297.097,78.313,293.582,74.799z"/><path d="M149.963,361.937c-3.516-3.514-9.213-3.514-12.729,0l-24.854,24.854l-24.854-24.854c-3.516-3.514-9.213-3.514-12.729,0   c-3.515,3.515-3.515,9.214,0,12.729l24.854,24.854l-24.854,24.854c-3.515,3.515-3.515,9.214,0,12.729   c1.758,1.757,4.061,2.636,6.364,2.636s4.606-0.879,6.364-2.636l24.854-24.854l24.854,24.854c1.758,1.757,4.061,2.636,6.364,2.636   s4.606-0.879,6.364-2.636c3.515-3.515,3.515-9.214,0-12.729l-24.854-24.854l24.854-24.854   C153.478,371.15,153.478,365.451,149.963,361.937z"/><path d="M256,206.308c-27.4,0-49.692,22.292-49.692,49.692S228.6,305.692,256,305.692S305.692,283.4,305.692,256   S283.4,206.308,256,206.308z M256,287.692c-17.476,0-31.692-14.217-31.692-31.692s14.217-31.692,31.692-31.692   s31.692,14.217,31.692,31.692S273.476,287.692,256,287.692z"/></g></svg>